<svg
  width="100%"
  height="100%"
  viewBox="0 0 2856 1409"
  version="1.1"
  xmlns="http://www.w3.org/2000/svg"
  xmlnsXlink="http://www.w3.org/1999/xlink"
  xmlSpace="preserve"
  style="fill-rule:evenodd; clip-rule:evenodd; stroke-linejoin:round; stroke-miterlimit:2;"
>
    <g>
        <g>
            <path d="M755.887,613.475c-32.309,-82.279 -148.664,-168.731 -156.914,-196.972c-11.625,-39.795 -26.74,-83.526 -42.698,-130.057c-59.282,-172.86 -91.704,-313.514 -207.556,-282.008c-115.852,31.506 -52.016,171.534 7.266,344.395c6.905,20.134 13.665,39.91 20.378,59.079c-20.665,-25.851 -43.721,-52.939 -67.526,-81.021c-109.583,-129.27 -190.126,-246.832 -275.994,-167.514c-85.868,79.317 11.526,171.657 121.109,300.927c23.452,27.664 45.743,54.066 67.102,77.856c-95.849,107.167 -103.591,277.054 -10.198,406.201c106.671,147.509 274.45,143.924 412.241,44.279c91.383,-66.083 146.774,-157.926 142.605,-255.322c-1.118,-26.124 1.144,-91.934 -9.815,-119.843Z" style="fill:#bac1df;"/>
            <path d="M130.416,570.119c60.401,-89.058 125.344,-22.985 212.379,43c87.035,65.984 161.349,120.602 103.014,196.111c-58.336,75.51 -125.344,22.986 -212.379,-42.999c-87.035,-65.985 -163.415,-107.054 -103.014,-196.112Z" style="fill:#8f98bc;"/>
            <path d="M611.131,716.011c-10.143,-53.259 -19.061,-106.394 -30.673,-150.596c-22.408,5.691 -46.342,12.358 -71.524,18.788c-122.537,31.29 -218.368,54.412 -197.093,142.657c12.772,52.978 73.523,60.371 113.316,57.889c44.6,-2.781 118.546,-46.423 185.974,-68.738Z" style="fill:#bac1df;"/>
            <path d="M74.946,738.552c41.912,-74.543 100.727,-23.985 177.632,25.546c76.904,49.532 142.423,90.432 101.05,153.943c-41.372,63.511 -100.727,23.985 -177.632,-25.546c-72.458,-46.668 -135.288,-75.88 -107.257,-141.448c1.721,-4.024 3.783,-8.185 6.207,-12.495Z" style="fill:#8f98bc;"/>
        </g>
        <path d="M712.262,1339.29l-0.116,0.207c-11.385,20.349 -26.03,33.988 -42.774,42.078c-14.034,6.782 -34.988,11.292 -63.243,11.292l-109.207,-0c-21.279,-0 -38.53,-17.251 -38.53,-38.53l0,-731.336c0,-21.279 17.251,-38.53 38.53,-38.53l64.784,0c51.421,0 85.844,7.366 103.968,17.735c19.495,11.152 35.354,28.283 46.588,52.2l0,-31.405c0,-21.279 17.25,-38.53 38.53,-38.53l144.375,0c21.279,0 38.529,17.251 38.529,38.53l0,146.357c0,21.28 -17.25,38.53 -38.529,38.53l-19.262,0l0,61.619l15.56,0c21.279,0 38.529,17.25 38.529,38.53l0,139.13c0,21.279 -17.25,38.529 -38.529,38.529l-15.56,0.001l0,83.753l25.02,-0c21.28,-0 38.53,17.25 38.53,38.53l-0,146.357c-0,21.279 -17.25,38.53 -38.53,38.53l-150.133,-0c-21.28,-0 -38.53,-17.251 -38.53,-38.53l0,-15.047Z" style="fill:#efcb52;"/>
        <path d="M1337.24,1380.9c-7.018,7.372 -16.927,11.966 -27.908,11.966l-75.684,-0c-5.367,-0 -10.477,-1.098 -15.119,-3.08c-4.649,1.984 -9.76,3.08 -15.114,3.08l-53.677,-0c-5.671,-0 -11.07,-1.229 -15.936,-3.443c-4.858,2.211 -10.256,3.443 -15.942,3.443l-75.684,-0c-21.279,-0 -38.529,-17.251 -38.529,-38.53l-0,-731.336c-0,-21.279 17.25,-38.53 38.529,-38.53l112.086,0c7.756,0 15.007,2.3 21.08,6.275c6.07,-3.973 13.319,-6.275 21.081,-6.275l112.909,0c10.981,0 20.89,4.594 27.908,11.966c7.018,-7.372 16.927,-11.966 27.908,-11.966l86.584,0c10.982,0 20.89,4.594 27.909,11.966c7.018,-7.372 16.926,-11.966 27.908,-11.966l86.584,0c21.279,0 38.529,17.251 38.529,38.53l0,546.449l14.12,-0c1.794,-0 3.56,0.123 5.288,0.36l33.047,-549.124c1.224,-20.343 18.079,-36.215 38.46,-36.215l125.248,0c20.268,0 37.071,15.703 38.441,35.925l8.462,124.845l-0,-122.24c-0,-21.279 17.25,-38.53 38.529,-38.53l72.393,0c9.133,0 17.605,3.199 24.268,8.603c6.624,-5.379 15.07,-8.603 24.269,-8.603l72.393,0c10.981,0 20.89,4.594 27.908,11.966c7.018,-7.372 16.927,-11.966 27.909,-11.966l144.374,0c21.28,0 38.53,17.251 38.53,38.53l0,4.929c5.915,-9.62 12.608,-18.125 20.002,-25.556c22.072,-22.181 48.728,-33.261 79.962,-33.261c33.184,-0 61.462,11.778 84.833,35.333c20.901,21.066 35.021,47.452 41.807,79.448c2.088,9.846 3.827,22.313 5.18,37.403l6.054,-100.611c1.225,-20.343 18.08,-36.215 38.46,-36.215l125.249,0c20.268,0 37.071,15.703 38.441,35.925l49.565,731.336c0.721,10.647 -3.005,21.116 -10.291,28.912c-7.286,7.797 -17.479,12.223 -28.151,12.223l-88.64,-0c-7.422,-0 -14.366,-2.102 -20.258,-5.751c-5.894,3.649 -12.838,5.751 -20.258,5.751l-89.668,-0c-10.621,-0 -20.77,-4.384 -28.051,-12.116c-3.923,-4.166 -6.826,-9.105 -8.569,-14.433l-4.448,4.868c-23.831,25.044 -51.802,37.039 -83.44,37.039c-34.524,0 -64.278,-13.768 -88.69,-42.484c-4.811,-5.66 -9.259,-11.671 -13.33,-18.039l-0,6.635c-0,21.279 -17.251,38.53 -38.53,38.53l-150.133,-0c-10.982,-0 -20.891,-4.594 -27.909,-11.966c-7.018,7.372 -16.927,11.966 -27.908,11.966l-75.89,-0c-8.355,-0 -16.153,-2.677 -22.518,-7.265c-6.334,4.571 -14.113,7.265 -22.522,7.265l-72.393,-0c-6.478,-0 -12.583,-1.599 -17.942,-4.424c-5.473,2.876 -11.616,4.424 -17.925,4.424l-88.641,-0c-7.421,-0 -14.365,-2.102 -20.258,-5.751c-5.893,3.649 -12.838,5.751 -20.257,5.751l-89.669,-0c-5.722,-0 -11.307,-1.273 -16.381,-3.656c-4.976,2.345 -10.536,3.656 -16.402,3.656l-139.233,-0c-10.982,-0 -20.89,-4.594 -27.908,-11.966c-7.019,7.372 -16.927,11.966 -27.909,11.966l-86.584,-0c-10.981,-0 -20.89,-4.594 -27.908,-11.966Z" style="fill:#efcb52;"/>
        <path d="M496.922,622.998l64.784,-0c41.818,-0 70.096,4.216 84.835,12.648c14.74,8.432 25.948,22.285 33.626,41.558c7.678,19.274 12.477,40.731 14.397,64.371c1.919,23.64 2.879,70.092 2.879,139.356l-0,256.125c-0,65.65 -1.405,109.543 -4.216,131.677c-2.811,22.134 -7.713,39.45 -14.705,51.948c-6.993,12.498 -15.63,21.231 -25.913,26.2c-10.284,4.969 -25.777,7.453 -46.48,7.453l-109.207,0l0,-731.336Zm86.584,125.127l-0,481.082c12.477,0 20.155,-5.496 23.034,-16.487c2.879,-10.992 4.319,-40.881 4.319,-89.667l0,-284.132c0,-33.127 -0.48,-54.358 -1.44,-63.693c-0.959,-9.336 -3.153,-16.187 -6.581,-20.553c-3.427,-4.367 -9.872,-6.55 -19.332,-6.55Zm167.286,-125.127l144.375,-0l-0,146.357l-57.791,0l-0,138.679l54.089,-0l-0,139.13l-54.089,-0l-0,160.813l63.549,-0l0,146.357l-150.133,0l-0,-731.336Zm558.538,-0l-0,731.336l-75.684,0l-0,-493.731l-30.233,493.731l-53.677,0l-31.878,-482.438l-0,482.438l-75.684,0l0,-731.336l112.086,-0c3.291,43.967 6.787,95.765 10.489,155.392l11.928,186.109l19.744,-341.501l112.909,-0Zm142.4,-0l0,731.336l-86.584,0l0,-731.336l86.584,-0Zm142.401,-0l-0,584.979l52.649,-0l0,146.357l-139.233,0l-0,-731.336l86.584,-0Zm254.692,-0l49.565,731.336l-88.641,0l-4.319,-131.451l-31.055,0l-5.141,131.451l-89.669,0l44.012,-731.336l125.248,-0Zm-45.863,470.241c-4.387,-82.815 -8.775,-185.055 -13.162,-306.718c-8.775,139.732 -14.259,241.972 -16.453,306.718l29.615,0Zm324.618,-470.241l-0,731.336l-75.89,0l-45.04,-332.467l0,332.467l-72.393,0l0,-731.336l72.393,-0l48.537,329.304l-0,-329.304l72.393,-0Zm55.817,-0l144.374,-0l0,146.357l-57.791,0l0,138.679l54.09,-0l-0,139.13l-54.09,-0l0,160.813l63.55,-0l0,146.357l-150.133,0l-0,-731.336Zm379.529,221.343l-80.414,0l-0,-54.206c-0,-25.297 -1.028,-41.408 -3.085,-48.334c-2.057,-6.927 -5.484,-10.39 -10.283,-10.39c-5.21,-0 -9.152,4.668 -11.826,14.003c-2.673,9.336 -4.01,23.49 -4.01,42.462c-0,24.393 1.508,42.763 4.524,55.11c2.88,12.347 11.038,27.254 24.474,44.72c38.528,50.292 62.796,91.549 72.805,123.772c10.009,32.223 15.013,84.171 15.013,155.844c0,52.098 -2.776,90.494 -8.329,115.188c-5.553,24.695 -16.282,45.398 -32.186,62.112c-15.905,16.714 -34.415,25.071 -55.529,25.071c-23.172,-0 -42.949,-9.637 -59.334,-28.911c-16.384,-19.273 -27.113,-43.816 -32.186,-73.63c-5.073,-29.814 -7.61,-72.125 -7.61,-126.934l0,-47.882l80.414,-0l0,88.989c0,27.404 1.132,45.022 3.394,52.851c2.262,7.83 6.273,11.745 12.031,11.745c5.759,0 10.043,-4.969 12.854,-14.907c2.811,-9.938 4.216,-24.694 4.216,-44.268c0,-43.064 -2.674,-71.222 -8.021,-84.472c-5.484,-13.251 -18.989,-35.385 -40.515,-66.403c-21.526,-31.319 -35.785,-54.056 -42.778,-68.21c-6.993,-14.154 -12.785,-33.729 -17.378,-58.724c-4.594,-24.995 -6.89,-56.917 -6.89,-95.765c-0,-56.013 3.256,-96.969 9.769,-122.868c6.512,-25.898 17.035,-46.15 31.569,-60.756c14.533,-14.606 32.083,-21.909 52.65,-21.909c22.485,0 41.646,7.981 57.482,23.942c15.836,15.96 26.325,36.062 31.466,60.304c5.142,24.243 7.713,65.425 7.713,123.546l-0,28.91Zm204.922,-221.343l49.564,731.336l-88.64,0l-4.319,-131.451l-31.055,0l-5.142,131.451l-89.668,0l44.011,-731.336l125.249,-0Zm-45.863,470.241c-4.387,-82.815 -8.775,-185.055 -13.162,-306.718c-8.775,139.732 -14.26,241.972 -16.453,306.718l29.615,0Z" style="fill:#df5353;"/>
        <path d="M697.417,1151.99c-0.201,57.415 -1.598,96.329 -4.19,116.74c-2.811,22.134 -7.713,39.45 -14.705,51.948c-6.993,12.498 -15.63,21.231 -25.913,26.2c-10.284,4.969 -25.777,7.453 -46.48,7.453l-109.207,0l0,-202.341l86.584,-0l-0,77.214c12.477,0 20.155,-5.496 23.034,-16.487c2.258,-8.621 3.631,-28.863 4.118,-60.727l86.759,-0Zm139.959,-0l-0,55.984l63.549,-0l0,146.357l-150.133,0l-0,-202.341l86.584,-0Zm280.482,-0l-0,202.341l-75.684,0l0,-202.341l75.684,-0Zm97.945,-0l-12.39,202.341l-53.677,0l-13.37,-202.341l79.437,-0Zm93.527,-0l-0,202.341l-75.684,0l-0,-202.341l75.684,-0Zm142.4,-0l0,202.341l-86.584,0l0,-202.341l86.584,-0Zm142.401,-0l-0,55.984l52.649,-0l0,146.357l-139.233,0l-0,-202.341l86.584,-0Zm675.847,-0l0,55.984l63.55,-0l0,146.357l-150.133,0l-0,-202.341l86.583,-0Zm533.719,-0l13.713,202.341l-88.64,0l-4.319,-131.451l-31.055,0l-5.142,131.451l-89.668,0l12.177,-202.341l192.934,-0Zm-233.654,-0c0.053,5.005 0.079,10.115 0.079,15.329c0,52.098 -2.776,90.494 -8.329,115.188c-5.553,24.695 -16.282,45.398 -32.186,62.112c-15.905,16.714 -34.415,25.071 -55.529,25.071c-23.172,-0 -42.949,-9.637 -59.334,-28.911c-16.384,-19.273 -27.113,-43.816 -32.186,-73.63c-4.704,-27.643 -7.227,-66.029 -7.569,-115.159l80.373,-0l0,29.332c0,27.404 1.132,45.022 3.394,52.851c2.262,7.83 6.273,11.745 12.031,11.745c5.759,0 10.043,-4.969 12.854,-14.907c2.811,-9.938 4.216,-24.694 4.216,-44.268c0,-12.928 -0.241,-24.512 -0.723,-34.753l82.909,-0Zm-685.369,-0l13.714,202.341l-88.641,0l-4.319,-131.451l-31.055,0l-5.141,131.451l-89.669,0l12.177,-202.341l192.934,-0Zm121.974,-0l0,202.341l-72.393,0l0,-202.341l72.393,-0Zm120.93,-0l-0,202.341l-75.89,0l-27.411,-202.341l103.301,-0Z" style="fill:#4972a2;"/>
    </g>
</svg>
